<?xml version="1.0" encoding="UTF-8" standalone="no"?>
<svg width="219px" height="27px" viewBox="0 0 219 27" version="1.1" xmlns="http://www.w3.org/2000/svg" xmlns:xlink="http://www.w3.org/1999/xlink" style="background: #FFFFFF;">
    <defs>
        <rect id="path-1" x="0" y="0" width="218" height="27" rx="5"></rect>
        <mask id="mask-2" maskContentUnits="userSpaceOnUse" maskUnits="objectBoundingBox" x="0" y="0" width="218" height="27" fill="white">
            <use xlink:href="#path-1"></use>
        </mask>
    </defs>
    <g id="Page-1" stroke="none" stroke-width="1" fill="none" fill-rule="evenodd">
        <use id="Rectangle-2" stroke="#187DBB" mask="url(#mask-2)" stroke-width="2" xlink:href="#path-1"></use>
        <g id="addons" transform="translate(7.000000, 6.000000)">
            <rect id="Rectangle-path" x="0" y="0" width="16" height="16"></rect>
            <g id="Group" transform="translate(1.000000, 0.000000)" fill="#333333">
                <polygon id="Shape" points="10.2 2.13 7 0 3.8 2.13 7 4.27"></polygon>
                <polygon id="Shape" points="10.2 3.73 7 5.87 3.8 3.73 3.8 6.4 7 8.53 10.2 6.4"></polygon>
                <polygon id="Shape" points="0 9.6 3.2 11.73 6.4 9.6 3.2 7.47"></polygon>
                <polygon id="Shape" points="0 11.2 0 13.87 3.2 16 6.4 13.87 6.4 11.2 3.2 13.33"></polygon>
                <polygon id="Shape" points="10.8 11.73 14 9.6 10.8 7.47 7.6 9.6"></polygon>
                <polygon id="Shape" points="7.6 11.2 7.6 13.87 10.8 16 14 13.87 14 11.2 10.8 13.33"></polygon>
            </g>
        </g>
        <text font-family="Futura-Medium, Futura" font-size="14" font-weight="400" fill="#000000">
            <tspan x="33" y="19">Add to MATLAB</tspan>
        </text>
        <text id="version" font-family="Futura-Medium, Futura" font-size="14" font-weight="400" fill="#808080">
            <tspan x="149" y="19">v1.0.0</tspan>
        </text>
    </g>
</svg>
